<svg width="23" height="12" fill="none" xmlns="http://www.w3.org/2000/svg"><path d="M17.77 11.83a2.98 2.98 0 01-1.55-.47 7.56 7.56 0 01-1.32-1.15c-.32-.33-.87-.88-1.07-.88-.21 0-.36.69-.35 1.18 0 .33-.12.66-.35.9-.26.22-.57.35-.9.38H10.8c-2.05-.05-4-.85-5.51-2.25C2.56 7 .2 2.18.12 1.97a1.01 1.01 0 01.1-1.1C.52.61.88.48 1.25.5h3.12c.24.04.48.13.7.26.2.14.36.33.46.55.32.7.7 1.36 1.1 2 .97 1.5 1.4 1.85 1.56 1.92.17-.7.22-1.43.14-2.15.03-.33-.03-.66-.15-.96a.98.98 0 00-.58-.22l-.54-.51c-.1-.5.44-.93.82-1.1A6.38 6.38 0 0110.2.02h.52c.54-.01 1.07.04 1.6.15 1.26.27 1.21 1.3 1.16 2.49 0 .34-.03.75-.03 1.21v.36c-.03.33-.01.66.06.98a6.8 6.8 0 001.54-1.86c.43-.67.8-1.38 1.13-2.1a1.18 1.18 0 011.18-.72h3.46c.74 0 1.18.22 1.36.64.18.42.12 1.25-1.75 3.46l-.74.85a5.5 5.5 0 00-.92 1.19c.28.32.6.6.95.85.85.65 1.6 1.43 2.22 2.3a1.2 1.2 0 01.2 1.27 1.71 1.71 0 01-1.4.75l-2.81.03-.17-.03zM13.83 8.2c.66 0 1.24.6 1.86 1.22.33.37.7.7 1.11.97.31.21.67.32 1.04.32h.07l2.82-.04c.14 0 .28-.04.4-.1l-.07-.12a9.86 9.86 0 00-1.99-2.04c-.88-.75-1.33-1.1-1.39-1.68-.05-.58.37-1.08 1.2-2.04l.74-.83a8.05 8.05 0 001.52-2.21 4.16 4.16 0 00-.5 0H17.4a.4.4 0 00-.18 0c-.34.8-.75 1.56-1.22 2.29-1.4 2.11-2.06 2.4-2.53 2.4a.88.88 0 01-.41-.1c-.75-.44-.75-1.39-.7-2.08v-.32c0-.49 0-.9.03-1.27.06-1.26 0-1.27-.28-1.33-.45-.1-.91-.14-1.38-.12h-.5c-.48-.01-.95.01-1.42.07.07.05.13.12.19.19.3.49.46 1.06.43 1.63.1 1.24.05 2.85-.74 3.24-.14.07-.29.1-.44.1-.7 0-1.38-.66-2.54-2.44-.45-.69-.85-1.4-1.2-2.14l-.05-.08a.9.9 0 00-.24-.08H1.2c.44.92 2.51 4.97 4.84 7.09 1.3 1.2 2.99 1.9 4.76 1.97h1.37a.74.74 0 00.2-.07v-.07c0-.2 0-1.95 1.17-2.25.1-.04.19-.06.29-.08z" fill="#192144"/></svg>