<svg width="19" height="13" viewBox="0 0 19 13" xmlns="http://www.w3.org/2000/svg">
<path fill-rule="evenodd" clip-rule="evenodd" d="M16.1393 10.4663L11.8089 6.5L16.1393 2.53365L15.5488 1.90264L9.25 7.67188L2.9512 1.90264L2.36068 2.53365L6.69111 6.5L2.36068 10.4663L2.9512 11.0974L7.33083 7.08594L9.25 8.84375L11.1692 7.08594L15.5488 11.0974L16.1393 10.4663ZM1.57596 0.25C0.766947 0.25 0.111111 0.948839 0.111111 1.80786V11.1921C0.111111 12.0525 0.761627 12.75 1.57596 12.75H16.924C17.7331 12.75 18.3889 12.0512 18.3889 11.1921V1.80786C18.3889 0.947478 17.7384 0.25 16.924 0.25H1.57596Z"/>
</svg>
