<svg width="13" height="12" viewBox="0 0 13 12"  xmlns="http://www.w3.org/2000/svg">
<path d="M6.31915 4.6942L7.00392 3.25148C7.17396 2.89423 7.46885 2.38052 7.8863 1.96521C8.29685 1.55634 8.7886 1.27812 9.38298 1.27812C10.6667 1.27812 11.6809 2.34746 11.6809 3.63293C11.6809 4.60953 11.2565 5.29903 10.25 6.35063C9.99192 6.61998 9.69779 6.91111 9.37226 7.23207C8.52358 8.07077 7.46809 9.1143 6.31915 10.5094C5.17022 9.1143 4.11473 8.07077 3.26604 7.23207C2.94051 6.91111 2.64562 6.61917 2.38826 6.35063C1.38179 5.29903 0.957448 4.60953 0.957448 3.63293C0.957448 2.34746 1.97158 1.27812 3.25532 1.27812C3.8497 1.27812 4.34145 1.55634 4.752 1.96521C5.16945 2.38052 5.46434 2.89423 5.63439 3.25148L6.31915 4.6942ZM6.61941 11.3812C6.58252 11.4272 6.53654 11.4642 6.48468 11.4895C6.43283 11.5149 6.37633 11.528 6.31915 11.528C6.26197 11.528 6.20548 11.5149 6.15362 11.4895C6.10176 11.4642 6.05578 11.4272 6.0189 11.3812C4.7926 9.84736 3.68273 8.7506 2.76894 7.84819C1.18724 6.2845 0.19149 5.30145 0.19149 3.63293C0.19149 1.88698 1.56255 0.47168 3.25532 0.47168C4.48085 0.47168 5.33796 1.31844 5.86264 2.09101C6.06179 2.38536 6.21345 2.66842 6.31915 2.891C6.45166 2.61243 6.60428 2.34499 6.77566 2.09101C7.30034 1.31764 8.15745 0.47168 9.38298 0.47168C11.0757 0.47168 12.4468 1.88698 12.4468 3.63293C12.4468 5.30145 11.4511 6.2845 9.86937 7.84819C8.95558 8.7514 7.84571 9.84816 6.61941 11.3804V11.3812Z"/>
</svg>
