<svg xmlns="http://www.w3.org/2000/svg" xmlns:xlink="http://www.w3.org/1999/xlink"><symbol id="arrow-back"><path d="M8.81.4C8.71.3 8.6.2 8.47.14a.96.96 0 0 0-.82 0c-.13.06-.24.15-.34.26L.25 8.37a1.06 1.06 0 0 0 0 1.35L7.3 17.7a.98.98 0 0 0 1.5 0c.42-.47.07-.97-.34-1.44l-3.72-4.18-2.62-3.06 6.7-7.72s.4-.44-.02-.9z"/></symbol><symbol id="arrow-choose"><path d="M.64 1.1a.95.95 0 0 0 0 1.2L5.6 7.92a.6.6 0 0 0 .2.15.53.53 0 0 0 .45 0 .6.6 0 0 0 .19-.15L11.4 2.3c.3-.34.3-.87 0-1.2-.3-.33-.6-.06-.9.27L7.9 4.34 6 6.42 1.2 1.1S.92.77.64 1.1z"/></symbol><symbol id="arrow-next"><path d="M1.07 18.37c.1.11.22.2.34.26a.96.96 0 0 0 .82 0c.13-.06.24-.15.34-.26l7.06-7.97c.08-.1.15-.2.19-.31a1.06 1.06 0 0 0-.19-1.04L2.57 1.07a.98.98 0 0 0-1.5 0c-.42.47.25 1.29.67 1.76l6.08 6.9-6.4 7.24c-.41.46-.77.94-.35 1.4z"/></symbol><symbol id="bicycle"><path d="M12.95 14a3.1 3.1 0 0 1-1.67-.48 2.9 2.9 0 0 1-1.1-1.3 2.76 2.76 0 0 1 .64-3.13 3.13 3.13 0 0 1 3.28-.62c.55.22 1.02.58 1.35 1.06a2.79 2.79 0 0 1-.38 3.63c-.56.54-1.32.84-2.12.84zm0-4.75c-.39 0-.77.11-1.09.32-.32.2-.57.5-.72.84a1.8 1.8 0 0 0 .42 2.04 2.04 2.04 0 0 0 2.14.4c.36-.13.66-.38.88-.68a1.82 1.82 0 0 0-.25-2.37 2 2 0 0 0-1.38-.55zM4.32 14a3.1 3.1 0 0 1-1.67-.48 2.9 2.9 0 0 1-1.1-1.3A2.76 2.76 0 0 1 2.2 9.1a3.13 3.13 0 0 1 3.28-.62c.54.22 1.01.58 1.34 1.06a2.79 2.79 0 0 1-.37 3.63c-.57.54-1.33.84-2.13.84zm0-4.75c-.38 0-.76.11-1.09.32-.32.2-.57.5-.72.84a1.8 1.8 0 0 0 .43 2.04 2.04 2.04 0 0 0 2.14.4c.35-.13.66-.38.87-.68a1.82 1.82 0 0 0-.24-2.37 2 2 0 0 0-1.39-.55zM10.73 4a1.08 1.08 0 0 0 .74-.3 1 1 0 0 0 .3-.7.95.95 0 0 0-.3-.71 1.03 1.03 0 0 0-.74-.29 1.09 1.09 0 0 0-.74.3 1 1 0 0 0-.3.7.96.96 0 0 0 .3.7 1.05 1.05 0 0 0 .74.3z"/><path d="M12.28 6h-1.43c-.02 0-.05 0-.07-.02a.13.13 0 0 1-.04-.04L9.7 4.12a.98.98 0 0 0-.3-.34 1.04 1.04 0 0 0-1.31.1L5.8 6.08a1 1 0 0 0-.3.7c0 .54.41.73.6.84a105.12 105.12 0 0 1 2 1.14l.01.07v2.16c0 .26.22.5.5.5a.54.54 0 0 0 .39-.13.5.5 0 0 0 .16-.36V8.31a.48.48 0 0 0-.06-.23.5.5 0 0 0-.16-.17l-1.2-.84A.13.13 0 0 1 7.67 7a.12.12 0 0 1 .03-.1l1.38-1.4a.13.13 0 0 1 .1-.04c.03 0 .05 0 .06.02l.05.04.7 1.23c.05.08.12.15.2.2.08.04.17.06.27.06h1.83a.54.54 0 0 0 .37-.15.5.5 0 0 0 .15-.37.535.535 0 0 0-.54-.48z"/></symbol><symbol id="bus"><path d="M4.46 10.86c0-.32-.14-.59-.41-.81a1.5 1.5 0 0 0-.99-.34c-.38 0-.71.12-.98.34-.28.22-.41.5-.41.8 0 .32.13.6.4.82.28.22.6.33 1 .33.38 0 .7-.11.98-.33.27-.23.4-.5.4-.81zm11.14 0c0-.32-.13-.59-.4-.81a1.5 1.5 0 0 0-1-.34c-.38 0-.7.12-.98.34-.27.22-.4.5-.4.8 0 .32.13.6.4.82.28.22.6.33.99.33.38 0 .71-.11.98-.33.28-.23.41-.5.41-.81zm-.5-3.54-.78-3.43a.58.58 0 0 0-.25-.33.77.77 0 0 0-.44-.13h-10a.77.77 0 0 0-.43.13.58.58 0 0 0-.25.33l-.78 3.43a.5.5 0 0 0 .15.47c.14.14.32.21.54.21h11.56c.21 0 .4-.07.53-.2a.5.5 0 0 0 .15-.48zm-2.46-5.46a.38.38 0 0 0-.15-.3.56.56 0 0 0-.37-.13H5.15a.56.56 0 0 0-.37.12.38.38 0 0 0-.15.3c0 .13.05.23.15.31.1.08.23.13.37.13h6.97c.14 0 .27-.05.37-.13.1-.08.15-.18.15-.3zM17 8.33v5.38h-1.4v1.15c0 .31-.13.58-.4.8-.28.23-.6.34-1 .34a1.5 1.5 0 0 1-.98-.33c-.27-.23-.4-.5-.4-.81V13.7H4.46v1.15c0 .31-.14.58-.41.8-.27.23-.6.34-.99.34a1.5 1.5 0 0 1-.98-.33c-.28-.23-.41-.5-.41-.81V13.7H.27V8.33c0-.67.1-1.33.28-2L1.67 2.3c.06-.47.42-.88 1.06-1.23a8.18 8.18 0 0 1 2.5-.8C6.26.1 7.4 0 8.63 0c1.25 0 2.38.09 3.4.27 1.03.18 1.87.44 2.51.8.64.34 1 .75 1.06 1.22l1.15 4.05c.16.6.25 1.27.25 1.99z"/></symbol><symbol id="businessman"><path d="M23.38 23.24V19.9a5.85 5.85 0 0 0-2.81-5.09c-.94-.67-2.95-.8-3.9-.8l-2.13 2.28.8 1.74v4.02L14 23.5l-1.34-1.47v-4.02l.94-1.74L11.32 14c-1.07 0-3.08.13-4.02.8a5.53 5.53 0 0 0-2 2.28 5.15 5.15 0 0 0-.68 2.81v3.35s3.49 1.48 9.38 1.48c5.9 0 9.38-1.48 9.38-1.48zM14 3.42c-2.54 0-4.02 2.41-3.62 5.09.4 2.68 1.74 4.55 3.62 4.55 1.88 0 3.21-1.87 3.62-4.55.4-2.81-1.08-5.1-3.62-5.1z"/></symbol><symbol id="close-countries-icon"><path d="M7.88 1.8 1.13 8m0-6.2L7.88 8"/></symbol><symbol id="contacts-email"><path d="M16.14 10.47 11.8 6.5l4.33-3.97-.6-.63-6.29 5.77-6.3-5.77-.59.63L6.7 6.5l-4.33 3.97.6.63 4.37-4.01 1.92 1.75 1.92-1.75 4.38 4 .59-.62zM1.58.25C.77.25.1.95.1 1.81v9.38c0 .86.65 1.56 1.47 1.56h15.34c.81 0 1.47-.7 1.47-1.56V1.81c0-.86-.65-1.56-1.47-1.56H1.58z"/></symbol><symbol id="contacts-phone"><path d="M9.5 1.09c-2.8 0-5.6.47-6.62 1.41-.84.78-1.12 2.16-1.22 3.04l-.01.12c0 .34.3.62.65.62l2.57-.2h.07c.35-.02.64-.29.64-.63V4.24c0-.38.32-.68.72-.68h6.4c.4 0 .72.3.72.68v1.21c0 .34.29.61.64.62l.07.01 2.57.2c.36 0 .65-.28.65-.62l-.01-.12c-.1-.88-.38-2.26-1.22-3.04-1.02-.94-3.82-1.4-6.62-1.4zm0 8.03c-.72 0-1.3.55-1.3 1.23 0 .69.58 1.24 1.3 1.24.72 0 1.3-.55 1.3-1.24 0-.68-.58-1.23-1.3-1.23zm-.98-2.78v-.77a.8.8 0 0 0-.82-.78.8.8 0 0 0-.82.78v.77l-4.4 4.45c-.31.28-.5.67-.5 1.1v1.24c0 .69.58 1.24 1.3 1.24h.33v.77c0 .43.37.77.82.77a.8.8 0 0 0 .82-.77v-.77h8.5v.77c0 .43.37.77.82.77a.8.8 0 0 0 .82-.77v-.77h.32c.73 0 1.31-.55 1.31-1.24V11.9c0-.43-.19-.82-.5-1.1l-4.4-4.45v-.77c0-.43-.37-.78-.82-.78a.8.8 0 0 0-.82.78v.77H8.52zm.98 1.54c1.45 0 2.62 1.1 2.62 2.47a2.55 2.55 0 0 1-2.62 2.47 2.55 2.55 0 0 1-2.62-2.47A2.55 2.55 0 0 1 9.5 7.88z"/></symbol><symbol id="delete-icon"><path d="M7.88 1.13 1.13 7.88m0-6.75 6.75 6.75"/></symbol><symbol id="email"><path d="m2.02 3.33 6.75 4.23c.22.14.52.2.81.2.3 0 .6-.06.82-.2l6.75-4.23c.44-.28.85-1.36.05-1.36H1.97c-.8 0-.4 1.08.05 1.36zm15.33 2.3L10.4 9.88c-.3.18-.52.2-.82.2-.3 0-.5-.02-.81-.2L1.85 5.64c-.35-.22-.35.03-.35.23v7.66c0 .44.5 1.04.9 1.04h14.4c.4 0 .9-.6.9-1.04V5.87c0-.2 0-.45-.35-.23z"/></symbol><symbol id="facebook"><path d="M7.49 20.81H2.13v-9.67H0V6.35h2.07c-.16-2.17.23-3.75 1.2-4.83A4.88 4.88 0 0 1 6.86 0h3.75v4.61H7.67a4.7 4.7 0 0 0-.2 1.74h3.15v4.79H7.46l.02 9.67zM3.32 19.7h2.97V10h3.14V7.5H6.29v-.57c0-1.5 0-2.84.78-3.34l.15-.1h2.2V1.12H6.9a3.82 3.82 0 0 0-2.74 1.13c-.79.92-1.11 2.47-.87 4.6l.08.63h-2.2V10h2.15v9.68z"/></symbol><symbol id="favourite"><path d="m6 4.66.67-1.4c.17-.35.46-.86.86-1.26.4-.4.89-.67 1.47-.67a2.28 2.28 0 0 1 2.25 2.3c0 .95-.42 1.63-1.4 2.65-.25.27-.54.55-.86.86-.83.82-1.87 1.84-2.99 3.2a40.57 40.57 0 0 0-2.99-3.2l-.86-.86C1.17 5.26.75 4.58.75 3.63c0-1.26 1-2.3 2.25-2.3.58 0 1.06.27 1.47.67.4.4.7.9.86 1.26L6 4.66zm.3 6.54a.39.39 0 0 1-.3.14.37.37 0 0 1-.3-.14 37.64 37.64 0 0 0-3.18-3.45C.98 6.22 0 5.25 0 3.63 0 1.93 1.34.54 3 .54c1.2 0 2.04.83 2.55 1.58.2.29.35.57.45.78.13-.27.28-.53.45-.78C6.96 1.37 7.8.54 9 .54c1.66 0 3 1.38 3 3.09 0 1.63-.97 2.59-2.52 4.12-.9.88-1.99 1.95-3.19 3.45z"/></symbol><symbol id="instagram"><path d="M12.96 2.03c.86 0 1.68.34 2.29.94.6.6.95 1.4.95 2.25v7.8a3.25 3.25 0 0 1-3.24 3.18H5.04a3.22 3.22 0 0 1-3.23-3.19V5.22c0-.84.34-1.65.95-2.25.6-.6 1.42-.93 2.28-.94h7.92zm0-1.06H5.04c-1.15 0-2.24.45-3.05 1.25a4.22 4.22 0 0 0-1.27 3v7.8a4.3 4.3 0 0 0 4.32 4.24h7.92c1.15 0 2.24-.45 3.05-1.24a4.22 4.22 0 0 0 1.27-3v-7.8a4.2 4.2 0 0 0-1.27-3A4.36 4.36 0 0 0 12.96.97z"/><path d="M9 5.98a3.23 3.23 0 0 1 2.95 1.94 3.09 3.09 0 0 1-.69 3.42 3.2 3.2 0 0 1-5.44-2.22 3.09 3.09 0 0 1 .93-2.22A3.19 3.19 0 0 1 9 5.98zm0-1.06a4.32 4.32 0 0 0-3.94 2.59 4.14 4.14 0 0 0 .92 4.58 4.3 4.3 0 0 0 7.29-2.97 4.13 4.13 0 0 0-1.25-2.97 4.27 4.27 0 0 0-3.01-1.23zm4.43.81c.53 0 .96-.42.96-.95a.96.96 0 0 0-.96-.95.96.96 0 0 0-.97.95c0 .53.44.95.97.95z"/></symbol><symbol id="location"><path d="M10.5 0a7.88 7.88 0 0 0-7.88 7.88c0 5.05 3.8 7.26 4.65 8.27C9.29 18.58 9.4 21 10.5 21s1.21-2.42 3.23-4.85c.84-1 4.64-3.22 4.64-8.27A7.88 7.88 0 0 0 10.5 0zm0 13.13a5.25 5.25 0 1 1 0-10.5 5.25 5.25 0 0 1 0 10.5zm0-7.88a2.63 2.63 0 1 0 0 5.25 2.63 2.63 0 0 0 0-5.25z"/><ellipse cx="10.5" cy="7.88" rx=".88" ry=".87"/></symbol><symbol id="phone"><path d="M9.77 8.22c0 .2.16.34.35.34.38 0 .7.32.7.7 0 .18.15.33.34.33.19 0 .34-.15.34-.33 0-.76-.62-1.37-1.38-1.37a.34.34 0 0 0-.35.33zm5.56 1.37c.2 0 .34-.15.34-.33 0-3.03-2.49-5.5-5.55-5.5a.34.34 0 0 0-.35.34c0 .19.16.34.35.34a4.85 4.85 0 0 1 4.87 4.82c0 .18.15.33.34.33z"/><path d="M12.9 9.26c0 .18.16.33.35.33.18 0 .34-.15.34-.33 0-1.9-1.56-3.44-3.47-3.44a.34.34 0 0 0-.35.34c0 .2.16.34.35.34a2.78 2.78 0 0 1 2.78 2.76zM10.12 1.7a.34.34 0 0 0-.35.34c0 .18.16.33.35.33a6.93 6.93 0 0 1 6.96 6.89c0 .18.15.33.34.33.19 0 .34-.15.34-.33a7.61 7.61 0 0 0-7.64-7.56zm3.33 11.11-.45.24c-.75.41-1.34 1.53-2.27.69L8.3 11.3 6.2 9.26c-1.06-1.34.13-1.65.54-2.4l.24-.44a2.57 2.57 0 0 0-.45-3.1c-.5-.49-1.16-.76-1.87-.76-.7 0-1.37.27-1.87.76l-.17.18c-.93.91-1.03 2.48-.3 4.42A16.39 16.39 0 0 0 6.2 13.6c2.77 2.73 5.85 4.31 8.06 4.31.88 0 1.62-.25 2.14-.77l.18-.17a2.6 2.6 0 0 0 0-3.7c-.82-.81-2.1-1-3.13-.45z"/></symbol><symbol id="plane"><path d="M13.75.86c-.58.13-1.17.26-1.39.62l-1.7 3.18L1.59 6.7l-.37 1.02 6.96.62L7 11.09l-2.64.6-.66 1.08 1.9.19.22.89c.1.3.44.52.73.45l.88-.2 1.01 1.64.67-1.08-.65-2.65 1.9-2.3L14 15.74l.73-.78L12.5 5.8l2.06-2.95c.22-.36.08-.95-.07-1.54-.07-.3-.44-.53-.73-.46z"/></symbol><symbol id="run"><path d="M12.12 4c.77 0 1.4-.6 1.4-1.33 0-.74-.63-1.34-1.4-1.34-.77 0-1.4.6-1.4 1.34 0 .73.63 1.33 1.4 1.33zm-.85 3.31a1.46 1.46 0 0 0 1.5.55l2.3-.55-.33-1.29-2.31.55-.96-1.38c-.2-.29-.53-.5-.89-.56L7.9 4.1a1.4 1.4 0 0 0-.88.11c-.28.13-.5.34-.64.6L5.23 7.03l1.24.6 1.16-2.21L9 5.68l-3.55 5.65H2.36v1.34h3.1c.48 0 .94-.25 1.19-.65l1.34-2.13 3.6.69 1.26 3.63 1.33-.42-1.27-3.63a1.34 1.34 0 0 0-.4-.58c-.18-.16-.4-.26-.65-.31l-2.12-.4 1.24-1.97.29.41z"/></symbol><symbol id="vk"><path d="M17.77 11.83a2.98 2.98 0 0 1-1.55-.47 7.56 7.56 0 0 1-1.32-1.15c-.32-.33-.87-.88-1.07-.88-.21 0-.36.69-.35 1.18 0 .33-.12.66-.35.9-.26.22-.57.35-.9.38H10.8c-2.05-.05-4-.85-5.51-2.25C2.56 7 .2 2.18.12 1.97a1.01 1.01 0 0 1 .1-1.1C.52.61.88.48 1.25.5h3.12c.24.04.48.13.7.26.2.14.36.33.46.55.32.7.7 1.36 1.1 2 .97 1.5 1.4 1.85 1.56 1.92.17-.7.22-1.43.14-2.15.03-.33-.03-.66-.15-.96a.98.98 0 0 0-.58-.22l-.54-.51c-.1-.5.44-.93.82-1.1A6.38 6.38 0 0 1 10.2.02h.52c.54-.01 1.07.04 1.6.15 1.26.27 1.21 1.3 1.16 2.49 0 .34-.03.75-.03 1.21v.36c-.03.33-.01.66.06.98a6.8 6.8 0 0 0 1.54-1.86c.43-.67.8-1.38 1.13-2.1a1.18 1.18 0 0 1 1.18-.72h3.46c.74 0 1.18.22 1.36.64.18.42.12 1.25-1.75 3.46l-.74.85a5.5 5.5 0 0 0-.92 1.19c.28.32.6.6.95.85.85.65 1.6 1.43 2.22 2.3a1.2 1.2 0 0 1 .2 1.27 1.71 1.71 0 0 1-1.4.75l-2.81.03-.17-.03zM13.83 8.2c.66 0 1.24.6 1.86 1.22.33.37.7.7 1.11.97.31.21.67.32 1.04.32h.07l2.82-.04c.14 0 .28-.04.4-.1l-.07-.12a9.86 9.86 0 0 0-1.99-2.04c-.88-.75-1.33-1.1-1.39-1.68-.05-.58.37-1.08 1.2-2.04l.74-.83a8.05 8.05 0 0 0 1.52-2.21 4.16 4.16 0 0 0-.5 0H17.4a.4.4 0 0 0-.18 0c-.34.8-.75 1.56-1.22 2.29-1.4 2.11-2.06 2.4-2.53 2.4a.88.88 0 0 1-.41-.1c-.75-.44-.75-1.39-.7-2.08v-.32c0-.49 0-.9.03-1.27.06-1.26 0-1.27-.28-1.33-.45-.1-.91-.14-1.38-.12h-.5c-.48-.01-.95.01-1.42.07.07.05.13.12.19.19.3.49.46 1.06.43 1.63.1 1.24.05 2.85-.74 3.24-.14.07-.29.1-.44.1-.7 0-1.38-.66-2.54-2.44-.45-.69-.85-1.4-1.2-2.14l-.05-.08a.9.9 0 0 0-.24-.08H1.2c.44.92 2.51 4.97 4.84 7.09 1.3 1.2 2.99 1.9 4.76 1.97h1.37a.74.74 0 0 0 .2-.07v-.07c0-.2 0-1.95 1.17-2.25.1-.04.19-.06.29-.08z"/></symbol></svg>