<svg width="13" height="13" fill="none" xmlns="http://www.w3.org/2000/svg"><g clip-path="url(#clip0_13537_2417)"><path fill-rule="evenodd" clip-rule="evenodd" d="M6.32 5.7L7 4.24c.17-.36.47-.87.89-1.28.4-.41.9-.7 1.5-.7 1.28 0 2.3 1.08 2.3 2.36 0 .98-.43 1.67-1.44 2.72l-.88.88a41.5 41.5 0 00-3.05 3.28 41.5 41.5 0 00-3.05-3.28l-.88-.88C1.39 6.3.96 5.61.96 4.63a2.33 2.33 0 012.3-2.35c.59 0 1.08.28 1.5.69.4.41.7.92.87 1.28l.69 1.44zm.3 6.68a.4.4 0 01-.3.15.4.4 0 01-.3-.15 38.5 38.5 0 00-3.25-3.53C1.19 7.28.19 6.3.19 4.63a3.11 3.11 0 013.07-3.16c1.22 0 2.08.85 2.6 1.62.2.3.35.58.46.8.13-.28.28-.55.46-.8.52-.77 1.38-1.62 2.6-1.62 1.7 0 3.07 1.42 3.07 3.16 0 1.67-1 2.65-2.58 4.22-.91.9-2.02 2-3.25 3.53z" fill="#192144" opacity=".5"/></g><defs><clipPath id="clip0_13537_2417"><path fill="#fff" transform="translate(.2 .7)" d="M0 0h12.26v12.28H0z"/></clipPath></defs></svg>