<svg xmlns="http://www.w3.org/2000/svg" xmlns:xlink="http://www.w3.org/1999/xlink"><symbol id="arrow-back"><path d="M8.81.4C8.71.3 8.6.2 8.47.14a.96.96 0 0 0-.82 0c-.13.06-.24.15-.34.26L.25 8.37a1.06 1.06 0 0 0 0 1.35L7.3 17.7a.98.98 0 0 0 1.5 0c.42-.47.07-.97-.34-1.44l-3.72-4.18-2.62-3.06 6.7-7.72s.4-.44-.02-.9z"/></symbol><symbol id="arrow-choose"><path d="M.64 1.1a.95.95 0 0 0 0 1.2L5.6 7.92a.6.6 0 0 0 .2.15.53.53 0 0 0 .45 0 .6.6 0 0 0 .19-.15L11.4 2.3c.3-.34.3-.87 0-1.2-.3-.33-.6-.06-.9.27L7.9 4.34 6 6.42 1.2 1.1S.92.77.64 1.1z"/></symbol><symbol id="arrow-next"><path d="M1.07 18.37c.1.11.22.2.34.26a.96.96 0 0 0 .82 0c.13-.06.24-.15.34-.26l7.06-7.97c.08-.1.15-.2.19-.31a1.06 1.06 0 0 0-.19-1.04L2.57 1.07a.98.98 0 0 0-1.5 0c-.42.47.25 1.29.67 1.76l6.08 6.9-6.4 7.24c-.41.46-.77.94-.35 1.4z"/></symbol><symbol id="bicycle"><path d="M18.308 21a4.21 4.21 0 0 1-2.363-.727 4.3 4.3 0 0 1-1.566-1.935 4.368 4.368 0 0 1-.242-2.492 4.332 4.332 0 0 1 1.163-2.208 4.235 4.235 0 0 1 2.178-1.18 4.198 4.198 0 0 1 2.457.245c.777.327 1.441.88 1.908 1.589a4.356 4.356 0 0 1-.53 5.443A4.227 4.227 0 0 1 18.308 21Zm0-7.125c-.549 0-1.085.165-1.541.474a2.804 2.804 0 0 0-1.022 1.262 2.85 2.85 0 0 0-.158 1.625c.107.546.372 1.047.76 1.44a2.738 2.738 0 0 0 3.023.61c.506-.213.939-.573 1.243-1.036a2.84 2.84 0 0 0-.345-3.55 2.758 2.758 0 0 0-1.96-.825ZM6.105 21a4.21 4.21 0 0 1-2.363-.727 4.3 4.3 0 0 1-1.566-1.935 4.369 4.369 0 0 1-.242-2.492 4.331 4.331 0 0 1 1.164-2.208 4.235 4.235 0 0 1 2.177-1.18 4.198 4.198 0 0 1 2.457.245c.777.327 1.441.88 1.908 1.589a4.356 4.356 0 0 1-.53 5.443A4.227 4.227 0 0 1 6.105 21Zm0-7.125c-.549 0-1.085.165-1.541.474a2.804 2.804 0 0 0-1.022 1.262 2.85 2.85 0 0 0-.158 1.625c.107.546.372 1.047.76 1.44a2.738 2.738 0 0 0 3.022.61c.507-.213.94-.573 1.245-1.036a2.84 2.84 0 0 0-.346-3.55 2.758 2.758 0 0 0-1.96-.825ZM15.164 6a1.456 1.456 0 0 0 1.05-.44 1.497 1.497 0 0 0 .43-1.065 1.5 1.5 0 0 0-.426-1.06A1.457 1.457 0 0 0 15.174 3a1.461 1.461 0 0 0-1.048.436 1.501 1.501 0 0 0-.436 1.06 1.518 1.518 0 0 0 .43 1.061A1.478 1.478 0 0 0 15.164 6Z"/><path d="M17.362 9H15.34a.183.183 0 0 1-.163-.097L13.71 6.176a1.447 1.447 0 0 0-.435-.511 1.422 1.422 0 0 0-1.847.148l-3.23 3.3c-.27.28-.425.656-.43 1.05 0 .815.583 1.106.856 1.27 1.317.77 2.245 1.332 2.754 1.645a.186.186 0 0 1 .088.16v3.24c0 .404.307.75.704.77a.732.732 0 0 0 .546-.206.75.75 0 0 0 .23-.542v-4.031a.759.759 0 0 0-.308-.61l-1.71-1.247a.187.187 0 0 1-.077-.134.19.19 0 0 1 .05-.147l1.941-2.1a.184.184 0 0 1 .239-.027.186.186 0 0 1 .058.064l1.008 1.846a.745.745 0 0 0 .647.386h2.59a.73.73 0 0 0 .535-.232A.751.751 0 0 0 17.362 9Z"/></symbol><symbol id="bus"><path d="M4.34 13.948a1.3 1.3 0 0 0-.415-.97 1.392 1.392 0 0 0-1.004-.4c-.392 0-.726.133-1.003.4a1.3 1.3 0 0 0-.416.97c0 .38.138.702.416.97.277.268.611.402 1.003.402.392 0 .726-.134 1.004-.402.277-.268.415-.59.415-.97Zm11.356 0a1.3 1.3 0 0 0-.416-.97 1.392 1.392 0 0 0-1.004-.4c-.392 0-.726.133-1.003.4a1.3 1.3 0 0 0-.416.97c0 .38.138.702.416.97.277.268.611.402 1.003.402.392 0 .727-.134 1.004-.402a1.3 1.3 0 0 0 .416-.97Zm-.51-4.242-.799-4.115a.695.695 0 0 0-.25-.401.698.698 0 0 0-.449-.156H3.508c-.17 0-.319.052-.448.156a.695.695 0 0 0-.25.401l-.798 4.115a.661.661 0 0 0 .155.568c.14.164.322.246.543.246h11.777a.682.682 0 0 0 .543-.246.661.661 0 0 0 .155-.568Zm-2.507-6.558a.488.488 0 0 0-.155-.364.523.523 0 0 0-.377-.15H5.05a.523.523 0 0 0-.377.15.488.488 0 0 0-.155.364.523.523 0 0 0 .532.514h7.097c.148 0 .274-.05.377-.15a.488.488 0 0 0 .155-.364Zm4.436 7.768v6.461h-1.42v1.372a1.3 1.3 0 0 1-.415.97 1.392 1.392 0 0 1-1.004.4c-.392 0-.726-.133-1.003-.4a1.299 1.299 0 0 1-.416-.97v-1.372H4.34v1.372c0 .378-.138.701-.415.97a1.392 1.392 0 0 1-1.004.4c-.392 0-.726-.133-1.003-.4a1.3 1.3 0 0 1-.416-.97v-1.372H.082v-6.46c0-.8.093-1.597.278-2.39l1.142-4.864c.066-.557.427-1.047 1.08-1.468.655-.422 1.505-.74 2.551-.954C6.18 1.027 7.335.92 8.6.92c1.264 0 2.419.107 3.465.321 1.046.215 1.896.532 2.55.954.655.421 1.015.91 1.082 1.468l1.164 4.864c.17.729.255 1.525.255 2.39Z"/></symbol><symbol id="businessman"><path d="M23.38 23.24V19.9a5.85 5.85 0 0 0-2.81-5.09c-.94-.67-2.95-.8-3.9-.8l-2.13 2.28.8 1.74v4.02L14 23.5l-1.34-1.47v-4.02l.94-1.74L11.32 14c-1.07 0-3.08.13-4.02.8a5.53 5.53 0 0 0-2 2.28 5.15 5.15 0 0 0-.68 2.81v3.35s3.49 1.48 9.38 1.48c5.9 0 9.38-1.48 9.38-1.48zM14 3.42c-2.54 0-4.02 2.41-3.62 5.09.4 2.68 1.74 4.55 3.62 4.55 1.88 0 3.21-1.87 3.62-4.55.4-2.81-1.08-5.1-3.62-5.1z"/></symbol><symbol id="close-countries-icon"><path d="M7.88 1.8 1.13 8m0-6.2L7.88 8"/></symbol><symbol id="contacts-email"><path fill-rule="evenodd" clip-rule="evenodd" d="M16.14 10.466 11.808 6.5l4.33-3.966-.59-.631L9.25 7.672l-6.299-5.77-.59.632L6.69 6.5l-4.33 3.966.59.631 4.38-4.011L9.25 8.844l1.92-1.758 4.379 4.011.59-.63ZM1.575.25C.766.25.111.949.111 1.808v9.384c0 .86.65 1.558 1.465 1.558h15.348c.81 0 1.465-.699 1.465-1.558V1.808c0-.86-.65-1.558-1.465-1.558H1.576Z"/></symbol><symbol id="contacts-phone"><path d="M9.5 1.09c-2.8 0-5.6.47-6.62 1.41-.84.78-1.12 2.16-1.22 3.04l-.01.12c0 .34.3.62.65.62l2.57-.2h.07c.35-.02.64-.29.64-.63V4.24c0-.38.32-.68.72-.68h6.4c.4 0 .72.3.72.68v1.21c0 .34.29.61.64.62l.07.01 2.57.2c.36 0 .65-.28.65-.62l-.01-.12c-.1-.88-.38-2.26-1.22-3.04-1.02-.94-3.82-1.4-6.62-1.4zm0 8.03c-.72 0-1.3.55-1.3 1.23 0 .69.58 1.24 1.3 1.24.72 0 1.3-.55 1.3-1.24 0-.68-.58-1.23-1.3-1.23zm-.98-2.78v-.77a.8.8 0 0 0-.82-.78.8.8 0 0 0-.82.78v.77l-4.4 4.45c-.31.28-.5.67-.5 1.1v1.24c0 .69.58 1.24 1.3 1.24h.33v.77c0 .43.37.77.82.77a.8.8 0 0 0 .82-.77v-.77h8.5v.77c0 .43.37.77.82.77a.8.8 0 0 0 .82-.77v-.77h.32c.73 0 1.31-.55 1.31-1.24V11.9c0-.43-.19-.82-.5-1.1l-4.4-4.45v-.77c0-.43-.37-.78-.82-.78a.8.8 0 0 0-.82.78v.77H8.52zm.98 1.54c1.45 0 2.62 1.1 2.62 2.47a2.55 2.55 0 0 1-2.62 2.47 2.55 2.55 0 0 1-2.62-2.47A2.55 2.55 0 0 1 9.5 7.88z"/></symbol><symbol id="delete-icon"><path d="M7.88 1.13 1.13 7.88m0-6.75 6.75 6.75"/></symbol><symbol id="email"><path d="m2.02 3.33 6.75 4.23c.22.14.52.2.81.2.3 0 .6-.06.82-.2l6.75-4.23c.44-.28.85-1.36.05-1.36H1.97c-.8 0-.4 1.08.05 1.36zm15.33 2.3L10.4 9.88c-.3.18-.52.2-.82.2-.3 0-.5-.02-.81-.2L1.85 5.64c-.35-.22-.35.03-.35.23v7.66c0 .44.5 1.04.9 1.04h14.4c.4 0 .9-.6.9-1.04V5.87c0-.2 0-.45-.35-.23z"/></symbol><symbol id="facebook"><path d="M7.49 20.81H2.13v-9.67H0V6.35h2.07c-.16-2.17.23-3.75 1.2-4.83A4.88 4.88 0 0 1 6.86 0h3.75v4.61H7.67a4.7 4.7 0 0 0-.2 1.74h3.15v4.79H7.46l.02 9.67zM3.32 19.7h2.97V10h3.14V7.5H6.29v-.57c0-1.5 0-2.84.78-3.34l.15-.1h2.2V1.12H6.9a3.82 3.82 0 0 0-2.74 1.13c-.79.92-1.11 2.47-.87 4.6l.08.63h-2.2V10h2.15v9.68z"/></symbol><symbol id="favourite"><path d="m6.32 4.694.684-1.443c.17-.357.465-.87.882-1.286.41-.409.903-.687 1.497-.687 1.284 0 2.298 1.07 2.298 2.355 0 .977-.424 1.666-1.431 2.718-.258.269-.552.56-.878.881-.848.839-1.904 1.882-3.053 3.277C5.17 9.114 4.115 8.071 3.266 7.232c-.325-.32-.62-.613-.878-.881C1.382 5.299.958 4.61.958 3.633c0-1.286 1.014-2.355 2.297-2.355.595 0 1.086.278 1.497.687.417.416.712.93.882 1.286l.685 1.443Zm.3 6.687a.395.395 0 0 1-.3.147.395.395 0 0 1-.3-.147c-1.227-1.534-2.337-2.63-3.251-3.533C1.187 6.285.19 5.301.19 3.633.191 1.887 1.563.472 3.255.472c1.226 0 2.083.846 2.608 1.619.199.294.35.577.456.8.133-.279.285-.546.457-.8C7.3 1.318 8.157.471 9.383.471c1.693 0 3.064 1.416 3.064 3.162 0 1.668-.996 2.652-2.578 4.215-.913.903-2.023 2-3.25 3.532v.001Z"/></symbol><symbol id="instagram"><path d="M12.96 2.03c.86 0 1.68.34 2.29.94.6.6.95 1.4.95 2.25v7.8a3.25 3.25 0 0 1-3.24 3.18H5.04a3.22 3.22 0 0 1-3.23-3.19V5.22c0-.84.34-1.65.95-2.25.6-.6 1.42-.93 2.28-.94h7.92zm0-1.06H5.04c-1.15 0-2.24.45-3.05 1.25a4.22 4.22 0 0 0-1.27 3v7.8a4.3 4.3 0 0 0 4.32 4.24h7.92c1.15 0 2.24-.45 3.05-1.24a4.22 4.22 0 0 0 1.27-3v-7.8a4.2 4.2 0 0 0-1.27-3A4.36 4.36 0 0 0 12.96.97z"/><path d="M9 5.98a3.23 3.23 0 0 1 2.95 1.94 3.09 3.09 0 0 1-.69 3.42 3.2 3.2 0 0 1-5.44-2.22 3.09 3.09 0 0 1 .93-2.22A3.19 3.19 0 0 1 9 5.98zm0-1.06a4.32 4.32 0 0 0-3.94 2.59 4.14 4.14 0 0 0 .92 4.58 4.3 4.3 0 0 0 7.29-2.97 4.13 4.13 0 0 0-1.25-2.97 4.27 4.27 0 0 0-3.01-1.23zm4.43.81c.53 0 .96-.42.96-.95a.96.96 0 0 0-.96-.95.96.96 0 0 0-.97.95c0 .53.44.95.97.95z"/></symbol><symbol id="location"><path d="M10.5 0a7.88 7.88 0 0 0-7.88 7.88c0 5.05 3.8 7.26 4.65 8.27C9.29 18.58 9.4 21 10.5 21s1.21-2.42 3.23-4.85c.84-1 4.64-3.22 4.64-8.27A7.88 7.88 0 0 0 10.5 0zm0 13.13a5.25 5.25 0 1 1 0-10.5 5.25 5.25 0 0 1 0 10.5zm0-7.88a2.63 2.63 0 1 0 0 5.25 2.63 2.63 0 0 0 0-5.25z"/><ellipse cx="10.5" cy="7.88" rx=".88" ry=".87"/></symbol><symbol id="phone"><path d="M9.77 8.22c0 .2.16.34.35.34.38 0 .7.32.7.7 0 .18.15.33.34.33.19 0 .34-.15.34-.33 0-.76-.62-1.37-1.38-1.37a.34.34 0 0 0-.35.33zm5.56 1.37c.2 0 .34-.15.34-.33 0-3.03-2.49-5.5-5.55-5.5a.34.34 0 0 0-.35.34c0 .19.16.34.35.34a4.85 4.85 0 0 1 4.87 4.82c0 .18.15.33.34.33z"/><path d="M12.9 9.26c0 .18.16.33.35.33.18 0 .34-.15.34-.33 0-1.9-1.56-3.44-3.47-3.44a.34.34 0 0 0-.35.34c0 .2.16.34.35.34a2.78 2.78 0 0 1 2.78 2.76zM10.12 1.7a.34.34 0 0 0-.35.34c0 .18.16.33.35.33a6.93 6.93 0 0 1 6.96 6.89c0 .18.15.33.34.33.19 0 .34-.15.34-.33a7.61 7.61 0 0 0-7.64-7.56zm3.33 11.11-.45.24c-.75.41-1.34 1.53-2.27.69L8.3 11.3 6.2 9.26c-1.06-1.34.13-1.65.54-2.4l.24-.44a2.57 2.57 0 0 0-.45-3.1c-.5-.49-1.16-.76-1.87-.76-.7 0-1.37.27-1.87.76l-.17.18c-.93.91-1.03 2.48-.3 4.42A16.39 16.39 0 0 0 6.2 13.6c2.77 2.73 5.85 4.31 8.06 4.31.88 0 1.62-.25 2.14-.77l.18-.17a2.6 2.6 0 0 0 0-3.7c-.82-.81-2.1-1-3.13-.45z"/></symbol><symbol id="plane"><path d="M15.783.093c-.728.173-1.46.347-1.733.824l-2.107 4.199L.63 7.806.171 9.147l8.658.82-1.47 3.634-3.283.78-.824 1.43 2.369.256.27 1.169c.12.414.545.69.908.604l1.095-.26 1.268 2.163.825-1.428-.81-3.505 2.377-3.03 4.536 7.961.914-1.038L14.213 6.63l2.563-3.895c.276-.477.096-1.255-.085-2.036-.09-.387-.545-.691-.908-.605Z"/></symbol><symbol id="run"><path d="M14.976 5.76c.95 0 1.721-.86 1.721-1.92s-.77-1.92-1.721-1.92c-.95 0-1.721.86-1.721 1.92s.77 1.92 1.72 1.92ZM13.923 10.53c.198.329.481.581.812.724.33.142.693.168 1.037.073l2.854-.796-.416-1.862-2.854.796L14.17 7.48a1.735 1.735 0 0 0-1.094-.82l-3.31-.739a1.56 1.56 0 0 0-1.094.158c-.34.185-.614.49-.783.867l-1.427 3.183 1.54.86 1.427-3.185 1.692.378-4.377 8.138H2.928v1.92h3.815c.601 0 1.167-.357 1.476-.932L9.87 14.24l4.448.992 1.563 5.231 1.632-.607-1.562-5.23a1.955 1.955 0 0 0-.495-.833 1.665 1.665 0 0 0-.801-.444l-2.615-.583 1.525-2.836.358.6Z"/></symbol><symbol id="vk"><path d="M17.77 11.83a2.98 2.98 0 0 1-1.55-.47 7.56 7.56 0 0 1-1.32-1.15c-.32-.33-.87-.88-1.07-.88-.21 0-.36.69-.35 1.18 0 .33-.12.66-.35.9-.26.22-.57.35-.9.38H10.8c-2.05-.05-4-.85-5.51-2.25C2.56 7 .2 2.18.12 1.97a1.01 1.01 0 0 1 .1-1.1C.52.61.88.48 1.25.5h3.12c.24.04.48.13.7.26.2.14.36.33.46.55.32.7.7 1.36 1.1 2 .97 1.5 1.4 1.85 1.56 1.92.17-.7.22-1.43.14-2.15.03-.33-.03-.66-.15-.96a.98.98 0 0 0-.58-.22l-.54-.51c-.1-.5.44-.93.82-1.1A6.38 6.38 0 0 1 10.2.02h.52c.54-.01 1.07.04 1.6.15 1.26.27 1.21 1.3 1.16 2.49 0 .34-.03.75-.03 1.21v.36c-.03.33-.01.66.06.98a6.8 6.8 0 0 0 1.54-1.86c.43-.67.8-1.38 1.13-2.1a1.18 1.18 0 0 1 1.18-.72h3.46c.74 0 1.18.22 1.36.64.18.42.12 1.25-1.75 3.46l-.74.85a5.5 5.5 0 0 0-.92 1.19c.28.32.6.6.95.85.85.65 1.6 1.43 2.22 2.3a1.2 1.2 0 0 1 .2 1.27 1.71 1.71 0 0 1-1.4.75l-2.81.03-.17-.03zM13.83 8.2c.66 0 1.24.6 1.86 1.22.33.37.7.7 1.11.97.31.21.67.32 1.04.32h.07l2.82-.04c.14 0 .28-.04.4-.1l-.07-.12a9.86 9.86 0 0 0-1.99-2.04c-.88-.75-1.33-1.1-1.39-1.68-.05-.58.37-1.08 1.2-2.04l.74-.83a8.05 8.05 0 0 0 1.52-2.21 4.16 4.16 0 0 0-.5 0H17.4a.4.4 0 0 0-.18 0c-.34.8-.75 1.56-1.22 2.29-1.4 2.11-2.06 2.4-2.53 2.4a.88.88 0 0 1-.41-.1c-.75-.44-.75-1.39-.7-2.08v-.32c0-.49 0-.9.03-1.27.06-1.26 0-1.27-.28-1.33-.45-.1-.91-.14-1.38-.12h-.5c-.48-.01-.95.01-1.42.07.07.05.13.12.19.19.3.49.46 1.06.43 1.63.1 1.24.05 2.85-.74 3.24-.14.07-.29.1-.44.1-.7 0-1.38-.66-2.54-2.44-.45-.69-.85-1.4-1.2-2.14l-.05-.08a.9.9 0 0 0-.24-.08H1.2c.44.92 2.51 4.97 4.84 7.09 1.3 1.2 2.99 1.9 4.76 1.97h1.37a.74.74 0 0 0 .2-.07v-.07c0-.2 0-1.95 1.17-2.25.1-.04.19-.06.29-.08z"/></symbol></svg>